<svg width="144" height="178" viewBox="0 0 144 178" fill="none" xmlns="http://www.w3.org/2000/svg">
<path d="M143.667 72.3334C143.667 69.572 141.428 67.3334 138.667 67.3334C135.905 67.3334 133.667 69.572 133.667 72.3334H143.667ZM10.3333 72.3334C10.3333 69.572 8.09477 67.3334 5.33334 67.3334C2.57192 67.3334 0.333344 69.572 0.333344 72.3334H10.3333ZM54.1207 167.483C51.4417 168.152 49.8129 170.867 50.4826 173.546C51.1524 176.225 53.867 177.854 56.546 177.184L54.1207 167.483ZM61.8944 170.693L60.6817 165.842L60.6817 165.842L61.8944 170.693ZM82.1057 170.693L83.3183 165.842L83.3183 165.842L82.1057 170.693ZM87.454 177.184C90.133 177.854 92.8476 176.225 93.5174 173.546C94.1871 170.867 92.5583 168.152 89.8794 167.483L87.454 177.184ZM72 169.449L72 174.449L72 169.449ZM100.333 39.0001V72.3334H110.333V39.0001H100.333ZM43.6667 72.3334V39.0001H33.6667V72.3334H43.6667ZM72 100.667C56.3519 100.667 43.6667 87.9815 43.6667 72.3334H33.6667C33.6667 93.5043 50.8291 110.667 72 110.667V100.667ZM100.333 72.3334C100.333 87.9815 87.6481 100.667 72 100.667V110.667C93.1709 110.667 110.333 93.5043 110.333 72.3334H100.333ZM72 10.6667C87.6481 10.6667 100.333 23.352 100.333 39.0001H110.333C110.333 17.8292 93.1709 0.666748 72 0.666748V10.6667ZM72 0.666748C50.8291 0.666748 33.6667 17.8292 33.6667 39.0001H43.6667C43.6667 23.352 56.3519 10.6667 72 10.6667V0.666748ZM133.667 72.3334C133.667 106.391 106.058 134 72 134V144C111.58 144 143.667 111.914 143.667 72.3334H133.667ZM72 134C37.9425 134 10.3333 106.391 10.3333 72.3334H0.333344C0.333344 111.914 32.4196 144 72 144V134ZM67 139V164H77V139H67ZM56.546 177.184L63.107 175.544L60.6817 165.842L54.1207 167.483L56.546 177.184ZM80.893 175.544L87.454 177.184L89.8794 167.483L83.3183 165.842L80.893 175.544ZM63.107 175.544C66.0264 174.814 69.0132 174.449 72 174.449L72 164.449C68.1987 164.449 64.3973 164.914 60.6817 165.842L63.107 175.544ZM72 174.449C74.9868 174.449 77.9736 174.814 80.893 175.544L83.3183 165.842C79.6027 164.914 75.8014 164.449 72 164.449L72 174.449ZM67 164V169.449H77V164H67Z" fill="#72777A"/>
</svg>
